Coordinates
version=1
nRows=16
nColumns=22
inDegrees=yes

Units are S.I. units (second, meters, Newtons, ...)
If the header above contains a line with 'inDegrees', this indicates whether rotational values are in degrees (yes) or radians (no).

endheader
time	pelvis_tilt	pelvis_list	pelvis_rotation	pelvis_tx	pelvis_ty	pelvis_tz	hip_flexion_r	hip_adduction_r	hip_rotation_r	knee_angle_r	ankle_angle_r	subtalar_angle_r	hip_flexion_l	hip_adduction_l	hip_rotation_l	knee_angle_l	ankle_angle_l	subtalar_angle_l	lumbar_extension	lumbar_bending	lumbar_rotation
      3.73000000	     -1.73228721	      4.86343679	    159.74143624	      0.38290382	      0.92086846	     -0.48868689	      1.02506701	     -0.44173726	     -5.20589814	    -19.56245995	      8.69490347	      6.86719747	     20.31221649	     -6.92367707	    -10.34132996	    -66.85657300	     -2.05922935	     -3.42005820	     -9.04780083	     -2.70691398	      2.63126377
      3.74000000	     -1.99566243	      4.59471072	    160.25332810	      0.37574828	      0.92107588	     -0.49077352	      0.16602787	     -0.76767349	     -5.55438493	    -19.33819097	      9.04641469	      6.78750390	     21.06041567	     -6.88690783	    -11.08177711	    -65.50990476	     -0.90753882	     -3.57786758	     -9.20809518	     -3.08816911	      2.92208579
      3.75000000	     -2.22163849	      4.37167909	    160.74261334	      0.36857654	      0.92116062	     -0.49282999	     -0.69388615	     -1.02399139	     -5.89807609	    -19.07843751	      9.37894294	      6.70519151	     21.73416190	     -6.93484888	    -11.82786601	    -63.93533957	      0.15944314	     -3.71969888	     -9.35146082	     -3.41390023	      3.20015285
      3.76000000	     -2.42106674	      4.19219664	    161.20391431	      0.36138369	      0.92114837	     -0.49487220	     -1.56839121	     -1.21529458	     -6.22157727	    -18.76949651	      9.68046630	      6.61374989	     22.31575340	     -7.06852662	    -12.60997009	    -62.13156313	      1.10880147	     -3.88684128	     -9.48734777	     -3.69489450	      3.47167047
      3.77000000	     -2.59827992	      4.05029809	    161.63215258	      0.35414160	      0.92104717	     -0.49689667	     -2.45369152	     -1.35201522	     -6.51725934	    -18.42415200	      9.95512984	      6.51628064	     22.79022955	     -7.27831250	    -13.45480712	    -60.09144342	      1.95349133	     -4.10308782	     -9.61149456	     -3.93878530	      3.74918385
      3.78000000	     -2.75376781	      3.93983030	    162.01688533	      0.34684313	      0.92085882	     -0.49890462	     -3.33805534	     -1.44570616	     -6.78298327	    -18.05708691	     10.20658720	      6.42049888	     23.15050686	     -7.55960307	    -14.39898111	    -57.81736404	      2.68682070	     -4.37351260	     -9.72015521	     -4.15167279	      4.04418518
      3.79000000	     -2.89401855	      3.85347760	    162.35213753	      0.33947317	      0.92060249	     -0.50088617	     -4.22497843	     -1.50900957	     -7.01517660	    -17.66708028	     10.43257404	      6.32979347	     23.38398314	     -7.89665974	    -15.47633028	    -55.30825299	      3.29733298	     -4.70544301	     -9.81647853	     -4.34212852	      4.36324913
      3.80000000	     -3.02326046	      3.78367518	    162.65253281	      0.33199158	      0.92028908	     -0.50280121	     -5.12070693	     -1.55436554	     -7.22061828	    -17.25072224	     10.61305876	      6.24776048	     23.48798923	     -8.26065694	    -16.69218182	    -52.57161184	      3.79141632	     -5.11517464	     -9.89610684	     -4.51625170	      4.69734412
      3.81000000	     -3.13214720	      3.72643188	    162.87846388	      0.32441831	      0.91988902	     -0.50467448	     -5.98019977	     -1.59453800	     -7.36954014	    -16.86710545	     10.79694707	      6.19016126	     23.46939313	     -8.66783814	    -18.13607510	    -49.63560123	      4.17589847	     -5.51583203	     -9.94517224	     -4.67428001	      5.07136564
      3.82000000	     -3.26303985	      3.67907204	    163.09153616	      0.31668822	      0.91948607	     -0.50639489	     -6.87612247	     -1.64584827	     -7.55303527	    -16.46944267	     10.89666747	      6.15396762	     23.29705522	     -9.04147745	    -19.73766077	    -46.50311327	      4.47144392	     -6.01658313	    -10.01224139	     -4.82474650	      5.42292977
      3.83000000	     -3.36421117	      3.63661422	    163.23770195	      0.30883316	      0.91898830	     -0.50799883	     -7.72536147	     -1.70549765	     -7.67562775	    -16.10354533	     11.00457052	      6.15795761	     23.03634037	     -9.40088179	    -21.54730644	    -43.22448752	      4.66341862	     -6.45340755	    -10.03119586	     -4.95721461	      5.84184419
      3.84000000	     -3.44682866	      3.59951572	    163.33779993	      0.30084482	      0.91840610	     -0.50941702	     -8.53044617	     -1.78318807	     -7.77218376	    -15.78849010	     11.08201014	      6.19951914	     22.70152761	     -9.71514568	    -23.53803323	    -39.84628589	      4.77179620	     -6.81493080	    -10.01851112	     -5.06514467	      6.26609709
      3.85000000	     -3.46311844	      3.57045953	    163.38070843	      0.29275951	      0.91766477	     -0.51064035	     -9.23277425	     -1.86462271	     -7.79756101	    -15.53727559	     11.17284047	      6.27009751	     22.37783439	     -9.98254304	    -25.64277313	    -36.43472713	      4.78879173	     -7.04088578	     -9.92376496	     -5.13109816	      6.72872682
      3.86000000	     -3.48958061	      3.55714140	    163.43051441	      0.28452200	      0.91687778	     -0.51154894	     -9.92357563	     -1.96639030	     -7.88005041	    -15.34509912	     11.19002866	      6.39714633	     22.01287085	    -10.14761097	    -27.76939995	    -33.02918853	      4.77989228	     -7.18331198	     -9.84186718	     -5.15557924	      7.11643998
      3.87000000	     -3.47988211	      3.57269672	    163.47517427	      0.27617738	      0.91598014	     -0.51215442	    -10.55613759	     -2.06145678	     -7.97856741	    -15.20773072	     11.17123412	      6.59023227	     21.69260667	    -10.22693464	    -29.75350420	    -29.70443643	      4.74211526	     -7.17065956	     -9.72574385	     -5.11585114	      7.51096637
      3.88000000	     -3.39431506	      3.62250329	    163.50146380	      0.26778395	      0.91491987	     -0.51250043	    -11.07219487	     -2.12947379	     -8.02768811	    -15.15346280	     11.13203168	      6.82343937	     21.48594060	    -10.26196211	    -31.52499516	    -26.54121053	      4.67772215	     -6.97915867	     -9.54088310	     -4.99743055	      7.89403365
